<svg version="1.1" id="Layer_1" xmlns="http://www.w3.org/2000/svg" xmlns:xlink="http://www.w3.org/1999/xlink" x="0px" y="0px"
	 width="100%" viewBox="0 0 1024 1024" enable-background="new 0 0 1024 1024" xml:space="preserve">
<path fill="#000000" opacity="1.000000" stroke="none" 
	d="
M389.976624,790.263794 
	C363.363464,785.645264 341.703918,773.390930 325.131744,752.424194 
	C318.016174,743.421753 312.408630,733.612366 309.954254,722.352356 
	C309.036163,718.140259 307.039124,716.412964 303.045074,715.213867 
	C265.876465,704.055420 242.998032,678.734802 234.322342,641.591003 
	C226.496140,608.084290 235.732086,577.620605 256.108826,550.356995 
	C265.314423,538.040100 276.094757,527.134033 287.126678,516.474548 
	C291.401978,512.343567 291.342133,512.205627 286.965973,507.976746 
	C271.734833,493.258026 256.892700,478.274597 246.208603,459.637451 
	C221.442398,416.435669 229.010193,363.612549 265.189392,330.355042 
	C276.176880,320.254791 289.033081,313.385010 303.536621,309.741516 
	C306.506470,308.995422 308.371643,307.797150 309.274963,304.475159 
	C318.868408,269.195160 342.998779,247.898315 376.933563,238.033981 
	C415.973816,226.685608 451.013306,236.695602 481.772552,262.492188 
	C491.341187,270.517029 500.398865,279.186249 508.619507,288.622681 
	C511.646912,292.097839 513.578491,291.607819 516.560120,288.548553 
	C530.163757,274.590546 543.666504,260.496368 560.474731,250.173981 
	C606.974182,221.617294 668.892517,230.050568 701.793884,274.394196 
	C708.521362,283.461334 713.748047,293.259064 716.186157,304.335907 
	C716.861084,307.402679 718.356873,308.777435 721.255188,309.614685 
	C761.552979,321.255432 784.758118,348.740265 792.084534,389.188690 
	C798.151855,422.685852 787.826782,452.379547 766.445374,478.431824 
	C758.084534,488.619049 748.984253,498.122131 739.446106,507.214966 
	C737.784546,508.798889 735.893127,510.250671 734.907043,512.456848 
	C735.495728,514.576050 737.303284,515.646851 738.682922,517.033936 
	C752.669922,531.097046 766.732483,545.070801 777.316162,562.074707 
	C799.948914,598.436951 800.200745,647.791443 771.917114,682.368103 
	C758.643127,698.595581 742.463562,710.764404 721.543335,715.558228 
	C719.030457,716.134033 717.111511,716.942688 716.288635,719.992920 
	C706.729553,755.425171 682.636597,776.897766 648.617432,787.176208 
	C612.938599,797.956055 580.133179,789.916870 550.543884,767.901611 
	C538.745972,759.123718 528.434021,748.662842 518.197449,738.153564 
	C512.940308,732.756287 512.974792,732.763245 507.791199,737.942017 
	C497.065063,748.658447 486.490204,759.577942 474.187744,768.524414 
	C449.153076,786.729736 421.428558,794.942078 389.976624,790.263794 
M613.712219,637.799561 
	C616.113098,638.478027 618.490906,639.256104 620.918640,639.818665 
	C635.884705,643.286804 643.873108,635.005615 640.124207,619.991211 
	C638.664734,614.145996 636.328491,608.627808 633.977783,603.115479 
	C623.722900,579.068115 613.337219,555.075806 603.214600,530.972961 
	C598.154358,518.924133 598.389343,506.709686 603.000488,494.459503 
	C609.459229,477.300964 617.292786,460.731201 624.361511,443.835327 
	C629.820801,430.786346 636.344543,418.141754 640.084961,404.429016 
	C643.866760,390.564301 635.483704,381.877075 621.584839,385.149902 
	C617.553589,386.099121 613.541931,387.380341 609.741577,389.020081 
	C587.574219,398.584961 565.185974,407.704651 543.432190,418.141602 
	C523.210876,427.843292 503.881592,428.437805 483.513580,418.646545 
	C462.813171,408.695465 441.496063,400.025330 420.429016,390.840088 
	C414.628815,388.311218 408.800659,385.790894 402.534821,384.614990 
	C390.351013,382.328491 382.722260,390.047668 385.004547,402.250946 
	C386.864166,412.194153 391.644379,421.058502 395.493835,430.240479 
	C403.734253,449.896118 412.190521,469.464294 420.807983,488.957947 
	C427.430664,503.939178 428.050415,518.812439 421.446411,533.939636 
	C414.385468,550.113525 407.330353,566.293091 400.556763,582.588196 
	C395.008575,595.935425 387.956146,608.734009 384.994537,623.061157 
	C382.598236,634.653687 390.221405,642.395142 401.909973,640.392212 
	C407.851959,639.374084 413.475128,637.334717 418.994293,634.930664 
	C441.743073,625.021790 464.649017,615.461548 487.239044,605.204590 
	C503.878326,597.649536 520.069580,597.019958 536.891174,604.541992 
	C562.126038,615.826111 587.596069,626.584229 613.712219,637.799561 
z"/>
</svg>